{
	"asset":{
		"version":"2.0",
		"generator":"Created using the official Cinema 4D glTF Exporter 1.000x290161"
	},
	"scenes":[{
		"nodes":[0]
	}],
	"nodes":[{
		"name":"facebook",
		"translation":[0.0,
		0.0,
		0.0],
		"children":[1,
		7],
		"rotation":[0.0,
		0.0,
		0.0,
		-1.0],
		"scale":[0.10000000149011612,
		0.10000000149011612,
		0.10000000149011612]
	},
	{
		"name":"Path",
		"translation":[0.008876885287463665,
		-0.11664046347141266,
		0.05999999865889549],
		"children":[2],
		"rotation":[0.0,
		0.0,
		0.0,
		-1.0],
		"scale":[1.0,
		1.0,
		1.0]
	},
	{
		"name":"Path",
		"mesh":0,
		"children":[3,
		5]
	},
	{
		"name":"丸み 1",
		"mesh":1,
		"children":[4]
	},
	{
		"name":"キャップ 1",
		"mesh":2
	},
	{
		"name":"丸み 2",
		"mesh":3,
		"children":[6]
	},
	{
		"name":"キャップ 2",
		"mesh":4
	},
	{
		"name":"Path.1",
		"mesh":5,
		"translation":[-0.00887999963015318,
		0.11664000153541565,
		-0.05999999865889549],
		"children":[8,
		10],
		"rotation":[0.0,
		0.0,
		0.0,
		-1.0],
		"scale":[1.0,
		1.0,
		1.0]
	},
	{
		"name":"丸み 1",
		"mesh":6,
		"children":[9]
	},
	{
		"name":"キャップ 1",
		"mesh":7
	},
	{
		"name":"丸み 2",
		"mesh":8,
		"children":[11]
	},
	{
		"name":"キャップ 2",
		"mesh":9
	}],
	"meshes":[{
		"primitives":[{
			"attributes":{
				"POSITION":1,
				"NORMAL":2,
				"TEXCOORD_0":3
			},
			"indices":0,
			"material":0
		}]
	},
	{
		"primitives":[{
			"attributes":{
				"POSITION":5,
				"NORMAL":6,
				"TEXCOORD_0":7
			},
			"indices":4,
			"material":0
		}]
	},
	{
		"primitives":[{
			"attributes":{
				"POSITION":9,
				"NORMAL":10,
				"TEXCOORD_0":11
			},
			"indices":8,
			"material":0
		}]
	},
	{
		"primitives":[{
			"attributes":{
				"POSITION":13,
				"NORMAL":14,
				"TEXCOORD_0":15
			},
			"indices":12,
			"material":0
		}]
	},
	{
		"primitives":[{
			"attributes":{
				"POSITION":17,
				"NORMAL":18,
				"TEXCOORD_0":19
			},
			"indices":16,
			"material":0
		}]
	},
	{
		"primitives":[{
			"attributes":{
				"POSITION":21,
				"NORMAL":22,
				"TEXCOORD_0":23
			},
			"indices":20,
			"material":1
		}]
	},
	{
		"primitives":[{
			"attributes":{
				"POSITION":25,
				"NORMAL":26,
				"TEXCOORD_0":27
			},
			"indices":24,
			"material":1
		}]
	},
	{
		"primitives":[{
			"attributes":{
				"POSITION":29,
				"NORMAL":30,
				"TEXCOORD_0":31
			},
			"indices":28,
			"material":1
		}]
	},
	{
		"primitives":[{
			"attributes":{
				"POSITION":33,
				"NORMAL":34,
				"TEXCOORD_0":35
			},
			"indices":32,
			"material":1
		}]
	},
	{
		"primitives":[{
			"attributes":{
				"POSITION":37,
				"NORMAL":38,
				"TEXCOORD_0":39
			},
			"indices":36,
			"material":1
		}]
	}],
	"accessors":[{
		"bufferView":0,
		"type":"SCALAR",
		"componentType":5123,
		"count":294,
		"byteOffset":0,
		"min":[0],
		"max":[127]
	},
	{
		"bufferView":1,
		"type":"VEC3",
		"componentType":5126,
		"count":128,
		"byteOffset":0,
		"min":[-1.0689988136291505,
		-1.8639121055603028,
		-0.6499999761581421],
		"max":[0.8019411563873291,
		1.5150355100631714,
		0.0]
	},
	{
		"bufferView":1,
		"type":"VEC3",
		"componentType":5126,
		"count":128,
		"byteOffset":12,
		"min":[-1.0,
		-1.0,
		0.0],
		"max":[1.0,
		1.0,
		0.0]
	},
	{
		"bufferView":1,
		"type":"VEC2",
		"componentType":5126,
		"count":128,
		"byteOffset":24,
		"min":[0.0,
		0.0],
		"max":[1.0,
		1.0]
	},
	{
		"bufferView":2,
		"type":"SCALAR",
		"componentType":5123,
		"count":1764,
		"byteOffset":0,
		"min":[0],
		"max":[447]
	},
	{
		"bufferView":3,
		"type":"VEC3",
		"componentType":5126,
		"count":448,
		"byteOffset":0,
		"min":[-1.0689988136291505,
		-1.8639121055603028,
		0.0],
		"max":[0.8019411563873291,
		1.5150355100631714,
		0.07999999821186066]
	},
	{
		"bufferView":3,
		"type":"VEC3",
		"componentType":5126,
		"count":448,
		"byteOffset":12,
		"min":[-0.9914451241493225,
		-0.9914450645446777,
		0.13052025437355042],
		"max":[0.9914451241493225,
		0.9914448261260986,
		0.991470217704773]
	},
	{
		"bufferView":3,
		"type":"VEC2",
		"componentType":5126,
		"count":448,
		"byteOffset":24,
		"min":[0.0,
		0.0],
		"max":[1.0,
		1.0]
	},
	{
		"bufferView":4,
		"type":"SCALAR",
		"componentType":5123,
		"count":141,
		"byteOffset":0,
		"min":[0],
		"max":[48]
	},
	{
		"bufferView":5,
		"type":"VEC3",
		"componentType":5126,
		"count":49,
		"byteOffset":0,
		"min":[-0.9889988303184509,
		-1.783851146697998,
		0.07999999821186066],
		"max":[0.7219411730766296,
		1.4349088668823243,
		0.07999999821186066]
	},
	{
		"bufferView":5,
		"type":"VEC3",
		"componentType":5126,
		"count":49,
		"byteOffset":12,
		"min":[0.0,
		0.0,
		1.0],
		"max":[0.0,
		0.0,
		1.0]
	},
	{
		"bufferView":5,
		"type":"VEC2",
		"componentType":5126,
		"count":49,
		"byteOffset":24,
		"min":[0.0,
		0.0],
		"max":[1.0,
		0.5041279792785645]
	},
	{
		"bufferView":6,
		"type":"SCALAR",
		"componentType":5123,
		"count":1764,
		"byteOffset":0,
		"min":[0],
		"max":[447]
	},
	{
		"bufferView":7,
		"type":"VEC3",
		"componentType":5126,
		"count":448,
		"byteOffset":0,
		"min":[-1.0689988136291505,
		-1.8639121055603028,
		-0.7300000190734863],
		"max":[0.8019411563873291,
		1.5150355100631714,
		-0.6499999761581421]
	},
	{
		"bufferView":7,
		"type":"VEC3",
		"componentType":5126,
		"count":448,
		"byteOffset":12,
		"min":[-0.9914450645446777,
		-0.991445004940033,
		-0.9914703369140625],
		"max":[0.9914450645446777,
		0.9914448261260986,
		-0.13052046298980714]
	},
	{
		"bufferView":7,
		"type":"VEC2",
		"componentType":5126,
		"count":448,
		"byteOffset":24,
		"min":[0.0,
		0.0],
		"max":[1.0,
		1.0]
	},
	{
		"bufferView":8,
		"type":"SCALAR",
		"componentType":5123,
		"count":141,
		"byteOffset":0,
		"min":[0],
		"max":[48]
	},
	{
		"bufferView":9,
		"type":"VEC3",
		"componentType":5126,
		"count":49,
		"byteOffset":0,
		"min":[-0.9889988303184509,
		-1.783851146697998,
		-0.7300000190734863],
		"max":[0.7219411730766296,
		1.4349088668823243,
		-0.7300000190734863]
	},
	{
		"bufferView":9,
		"type":"VEC3",
		"componentType":5126,
		"count":49,
		"byteOffset":12,
		"min":[0.0,
		0.0,
		-1.0],
		"max":[0.0,
		0.0,
		-1.0]
	},
	{
		"bufferView":9,
		"type":"VEC2",
		"componentType":5126,
		"count":49,
		"byteOffset":24,
		"min":[0.0,
		0.0],
		"max":[0.5315524935722351,
		1.0]
	},
	{
		"bufferView":10,
		"type":"SCALAR",
		"componentType":5123,
		"count":408,
		"byteOffset":0,
		"min":[0],
		"max":[137]
	},
	{
		"bufferView":11,
		"type":"VEC3",
		"componentType":5126,
		"count":138,
		"byteOffset":0,
		"min":[-2.0800940990448,
		-2.0800940990448,
		-0.6499999761581421],
		"max":[2.0800940990448,
		2.0800940990448,
		0.0]
	},
	{
		"bufferView":11,
		"type":"VEC3",
		"componentType":5126,
		"count":138,
		"byteOffset":12,
		"min":[-0.9998694062232971,
		-0.9998694658279419,
		0.0],
		"max":[0.9998694062232971,
		0.9998694658279419,
		0.0]
	},
	{
		"bufferView":11,
		"type":"VEC2",
		"componentType":5126,
		"count":138,
		"byteOffset":24,
		"min":[0.0,
		0.0],
		"max":[1.0,
		1.0]
	},
	{
		"bufferView":12,
		"type":"SCALAR",
		"componentType":5123,
		"count":2448,
		"byteOffset":0,
		"min":[0],
		"max":[482]
	},
	{
		"bufferView":13,
		"type":"VEC3",
		"componentType":5126,
		"count":483,
		"byteOffset":0,
		"min":[-2.0800940990448,
		-2.0800940990448,
		0.0],
		"max":[2.0800940990448,
		2.0800940990448,
		0.07999999821186066]
	},
	{
		"bufferView":13,
		"type":"VEC3",
		"componentType":5126,
		"count":483,
		"byteOffset":12,
		"min":[-0.9912974834442139,
		-0.9912974834442139,
		0.1306135058403015],
		"max":[0.9912977814674377,
		0.9912974834442139,
		0.9914624691009522]
	},
	{
		"bufferView":13,
		"type":"VEC2",
		"componentType":5126,
		"count":483,
		"byteOffset":24,
		"min":[0.0,
		0.0],
		"max":[1.0,
		1.0]
	},
	{
		"bufferView":14,
		"type":"SCALAR",
		"componentType":5123,
		"count":198,
		"byteOffset":0,
		"min":[0],
		"max":[67]
	},
	{
		"bufferView":15,
		"type":"VEC3",
		"componentType":5126,
		"count":68,
		"byteOffset":0,
		"min":[-2.0,
		-2.0,
		0.07999999821186066],
		"max":[2.0,
		2.0,
		0.07999999821186066]
	},
	{
		"bufferView":15,
		"type":"VEC3",
		"componentType":5126,
		"count":68,
		"byteOffset":12,
		"min":[0.0,
		0.0,
		1.0],
		"max":[0.0,
		0.0,
		1.0]
	},
	{
		"bufferView":15,
		"type":"VEC2",
		"componentType":5126,
		"count":68,
		"byteOffset":24,
		"min":[0.0,
		0.0],
		"max":[0.9999999403953552,
		1.0]
	},
	{
		"bufferView":16,
		"type":"SCALAR",
		"componentType":5123,
		"count":2448,
		"byteOffset":0,
		"min":[0],
		"max":[482]
	},
	{
		"bufferView":17,
		"type":"VEC3",
		"componentType":5126,
		"count":483,
		"byteOffset":0,
		"min":[-2.0800940990448,
		-2.0800940990448,
		-0.7300000190734863],
		"max":[2.0800940990448,
		2.0800940990448,
		-0.6499999761581421]
	},
	{
		"bufferView":17,
		"type":"VEC3",
		"componentType":5126,
		"count":483,
		"byteOffset":12,
		"min":[-0.9912974834442139,
		-0.9912974834442139,
		-0.9914626479148865],
		"max":[0.9912977814674377,
		0.9912974834442139,
		-0.13061372935771943]
	},
	{
		"bufferView":17,
		"type":"VEC2",
		"componentType":5126,
		"count":483,
		"byteOffset":24,
		"min":[0.0,
		0.0],
		"max":[1.0,
		1.0]
	},
	{
		"bufferView":18,
		"type":"SCALAR",
		"componentType":5123,
		"count":198,
		"byteOffset":0,
		"min":[0],
		"max":[67]
	},
	{
		"bufferView":19,
		"type":"VEC3",
		"componentType":5126,
		"count":68,
		"byteOffset":0,
		"min":[-2.0,
		-2.0,
		-0.7300000190734863],
		"max":[2.0,
		2.0,
		-0.7300000190734863]
	},
	{
		"bufferView":19,
		"type":"VEC3",
		"componentType":5126,
		"count":68,
		"byteOffset":12,
		"min":[0.0,
		0.0,
		-1.0],
		"max":[0.0,
		0.0,
		-1.0]
	},
	{
		"bufferView":19,
		"type":"VEC2",
		"componentType":5126,
		"count":68,
		"byteOffset":24,
		"min":[0.0,
		0.0],
		"max":[1.0,
		1.0]
	}],
	"bufferViews":[{
		"buffer":0,
		"byteOffset":0,
		"byteLength":588,
		"target":34963
	},
	{
		"buffer":0,
		"byteOffset":588,
		"byteLength":4096,
		"target":34962,
		"byteStride":32
	},
	{
		"buffer":1,
		"byteOffset":0,
		"byteLength":3528,
		"target":34963
	},
	{
		"buffer":1,
		"byteOffset":3528,
		"byteLength":14336,
		"target":34962,
		"byteStride":32
	},
	{
		"buffer":2,
		"byteOffset":0,
		"byteLength":282,
		"target":34963
	},
	{
		"buffer":2,
		"byteOffset":284,
		"byteLength":1568,
		"target":34962,
		"byteStride":32
	},
	{
		"buffer":3,
		"byteOffset":0,
		"byteLength":3528,
		"target":34963
	},
	{
		"buffer":3,
		"byteOffset":3528,
		"byteLength":14336,
		"target":34962,
		"byteStride":32
	},
	{
		"buffer":4,
		"byteOffset":0,
		"byteLength":282,
		"target":34963
	},
	{
		"buffer":4,
		"byteOffset":284,
		"byteLength":1568,
		"target":34962,
		"byteStride":32
	},
	{
		"buffer":5,
		"byteOffset":0,
		"byteLength":816,
		"target":34963
	},
	{
		"buffer":5,
		"byteOffset":816,
		"byteLength":4416,
		"target":34962,
		"byteStride":32
	},
	{
		"buffer":6,
		"byteOffset":0,
		"byteLength":4896,
		"target":34963
	},
	{
		"buffer":6,
		"byteOffset":4896,
		"byteLength":15456,
		"target":34962,
		"byteStride":32
	},
	{
		"buffer":7,
		"byteOffset":0,
		"byteLength":396,
		"target":34963
	},
	{
		"buffer":7,
		"byteOffset":396,
		"byteLength":2176,
		"target":34962,
		"byteStride":32
	},
	{
		"buffer":8,
		"byteOffset":0,
		"byteLength":4896,
		"target":34963
	},
	{
		"buffer":8,
		"byteOffset":4896,
		"byteLength":15456,
		"target":34962,
		"byteStride":32
	},
	{
		"buffer":9,
		"byteOffset":0,
		"byteLength":396,
		"target":34963
	},
	{
		"buffer":9,
		"byteOffset":396,
		"byteLength":2176,
		"target":34962,
		"byteStride":32
	}],
	"buffers":[{
		"uri":"data:application/octet-stream;base64,",
		"byteLength":4684
	},
	{
		"uri":"data:application/octet-stream;base64,",
		"byteLength":17864
	},
	{
		"uri":"data:application/octet-stream;base64,",
		"byteLength":1852
	},
	{
		"uri":"data:application/octet-stream;base64,",
		"byteLength":17864
	},
	{
		"uri":"data:application/octet-stream;base64,",
		"byteLength":1852
	},
	{
		"uri":"data:application/octet-stream;base64,",
		"byteLength":5232
	},
	{
		"uri":"data:application/octet-stream;base64,",
		"byteLength":20352
	},
	{
		"uri":"data:application/octet-stream;base64,",
		"byteLength":2572
	},
	{
		"uri":"data:application/octet-stream;base64,",
		"byteLength":20352
	},
	{
		"uri":"data:application/octet-stream;base64,",
		"byteLength":2572
	}],
	"materials":[{
		"pbrMetallicRoughness":{
			"baseColorFactor":[1.0,
			1.0,
			1.0,
			1.0],
			"metallicFactor":0.0,
			"roughnessFactor":0.5
		},
		"emissiveFactor":[0.0,
		0.0,
		0.0],
		"alphaMode":"OPAQUE",
		"doubleSided":false,
		"name":"Path"
	},
	{
		"pbrMetallicRoughness":{
			"baseColorFactor":[0.094,
			0.4670000000000003,
			0.949,
			1.0],
			"metallicFactor":0.0,
			"roughnessFactor":0.5
		},
		"emissiveFactor":[0.0,
		0.0,
		0.0],
		"alphaMode":"OPAQUE",
		"doubleSided":false,
		"name":"Path_3"
	}]
}