{
	"asset":{
		"version":"2.0",
		"generator":"Created using the official Cinema 4D glTF Exporter 1.000x290161"
	},
	"scenes":[{
		"nodes":[0]
	}],
	"nodes":[{
		"name":"twitter",
		"translation":[0.0,
		0.0,
		0.0],
		"children":[1,
		7],
		"rotation":[0.0,
		0.0,
		0.0,
		-1.0],
		"scale":[0.10000000149011612,
		0.10000000149011612,
		0.10000000149011612]
	},
	{
		"name":"Path",
		"translation":[-0.0699581652879715,
		0.05657688155770302,
		0.05999999865889549],
		"children":[2],
		"rotation":[0.0,
		0.0,
		0.0,
		-1.0],
		"scale":[1.0,
		1.0,
		1.0]
	},
	{
		"name":"Path",
		"mesh":0,
		"children":[3,
		5]
	},
	{
		"name":"丸み 1",
		"mesh":1,
		"children":[4]
	},
	{
		"name":"キャップ 1",
		"mesh":2
	},
	{
		"name":"丸み 2",
		"mesh":3,
		"children":[6]
	},
	{
		"name":"キャップ 2",
		"mesh":4
	},
	{
		"name":"Path",
		"translation":[0.0699581652879715,
		-0.05657688155770302,
		-0.05999999865889549],
		"children":[8],
		"rotation":[0.0,
		0.0,
		0.0,
		-1.0],
		"scale":[1.0,
		1.0,
		1.0]
	},
	{
		"name":"Path",
		"mesh":5,
		"children":[9,
		11]
	},
	{
		"name":"丸み 1",
		"mesh":6,
		"children":[10]
	},
	{
		"name":"キャップ 1",
		"mesh":7
	},
	{
		"name":"丸み 2",
		"mesh":8,
		"children":[12]
	},
	{
		"name":"キャップ 2",
		"mesh":9
	}],
	"meshes":[{
		"primitives":[{
			"attributes":{
				"POSITION":1,
				"NORMAL":2,
				"TEXCOORD_0":3
			},
			"indices":0,
			"material":0
		}]
	},
	{
		"primitives":[{
			"attributes":{
				"POSITION":5,
				"NORMAL":6,
				"TEXCOORD_0":7
			},
			"indices":4,
			"material":0
		}]
	},
	{
		"primitives":[{
			"attributes":{
				"POSITION":9,
				"NORMAL":10,
				"TEXCOORD_0":11
			},
			"indices":8,
			"material":0
		}]
	},
	{
		"primitives":[{
			"attributes":{
				"POSITION":13,
				"NORMAL":14,
				"TEXCOORD_0":15
			},
			"indices":12,
			"material":0
		}]
	},
	{
		"primitives":[{
			"attributes":{
				"POSITION":17,
				"NORMAL":18,
				"TEXCOORD_0":19
			},
			"indices":16,
			"material":0
		}]
	},
	{
		"primitives":[{
			"attributes":{
				"POSITION":21,
				"NORMAL":22,
				"TEXCOORD_0":23
			},
			"indices":20,
			"material":1
		}]
	},
	{
		"primitives":[{
			"attributes":{
				"POSITION":25,
				"NORMAL":26,
				"TEXCOORD_0":27
			},
			"indices":24,
			"material":1
		}]
	},
	{
		"primitives":[{
			"attributes":{
				"POSITION":29,
				"NORMAL":30,
				"TEXCOORD_0":31
			},
			"indices":28,
			"material":1
		}]
	},
	{
		"primitives":[{
			"attributes":{
				"POSITION":33,
				"NORMAL":34,
				"TEXCOORD_0":35
			},
			"indices":32,
			"material":1
		}]
	},
	{
		"primitives":[{
			"attributes":{
				"POSITION":37,
				"NORMAL":38,
				"TEXCOORD_0":39
			},
			"indices":36,
			"material":1
		}]
	}],
	"accessors":[{
		"bufferView":0,
		"type":"SCALAR",
		"componentType":5123,
		"count":882,
		"byteOffset":0,
		"min":[0],
		"max":[335]
	},
	{
		"bufferView":1,
		"type":"VEC3",
		"componentType":5126,
		"count":336,
		"byteOffset":0,
		"min":[-1.1176209449768067,
		-1.248143196105957,
		-0.6499999761581421],
		"max":[1.5116918087005616,
		0.8273248672485352,
		0.0]
	},
	{
		"bufferView":1,
		"type":"VEC3",
		"componentType":5126,
		"count":336,
		"byteOffset":12,
		"min":[-0.9999759197235107,
		-0.9999958872795105,
		0.0],
		"max":[0.9999890327453613,
		0.9999799132347107,
		0.0]
	},
	{
		"bufferView":1,
		"type":"VEC2",
		"componentType":5126,
		"count":336,
		"byteOffset":24,
		"min":[0.0,
		0.0],
		"max":[1.0,
		1.0]
	},
	{
		"bufferView":2,
		"type":"SCALAR",
		"componentType":5123,
		"count":5292,
		"byteOffset":0,
		"min":[0],
		"max":[1140]
	},
	{
		"bufferView":3,
		"type":"VEC3",
		"componentType":5126,
		"count":1141,
		"byteOffset":0,
		"min":[-1.1176209449768067,
		-1.248143196105957,
		0.0],
		"max":[1.5116918087005616,
		0.8273248672485352,
		0.07999999821186066]
	},
	{
		"bufferView":3,
		"type":"VEC3",
		"componentType":5126,
		"count":1141,
		"byteOffset":12,
		"min":[-0.9913331270217896,
		-0.9911584854125977,
		-0.9698380827903748],
		"max":[0.9914288520812988,
		0.9913879036903381,
		0.9985418319702148]
	},
	{
		"bufferView":3,
		"type":"VEC2",
		"componentType":5126,
		"count":1141,
		"byteOffset":24,
		"min":[0.0,
		0.0],
		"max":[1.0,
		1.0]
	},
	{
		"bufferView":4,
		"type":"SCALAR",
		"componentType":5123,
		"count":435,
		"byteOffset":0,
		"min":[0],
		"max":[146]
	},
	{
		"bufferView":5,
		"type":"VEC3",
		"componentType":5126,
		"count":147,
		"byteOffset":0,
		"min":[-0.9650866389274597,
		-1.168084740638733,
		0.07999999821186066],
		"max":[1.3849133253097535,
		0.7417752146720886,
		0.07999999821186066]
	},
	{
		"bufferView":5,
		"type":"VEC3",
		"componentType":5126,
		"count":147,
		"byteOffset":12,
		"min":[0.0,
		0.0,
		1.0],
		"max":[0.0,
		0.0,
		1.0]
	},
	{
		"bufferView":5,
		"type":"VEC2",
		"componentType":5126,
		"count":147,
		"byteOffset":24,
		"min":[0.0,
		0.0],
		"max":[1.0,
		0.8127063512802124]
	},
	{
		"bufferView":6,
		"type":"SCALAR",
		"componentType":5123,
		"count":5292,
		"byteOffset":0,
		"min":[0],
		"max":[1150]
	},
	{
		"bufferView":7,
		"type":"VEC3",
		"componentType":5126,
		"count":1151,
		"byteOffset":0,
		"min":[-1.1176209449768067,
		-1.248143196105957,
		-0.7300000190734863],
		"max":[1.5116918087005616,
		0.8273248672485352,
		-0.6499999761581421]
	},
	{
		"bufferView":7,
		"type":"VEC3",
		"componentType":5126,
		"count":1151,
		"byteOffset":12,
		"min":[-0.9913330674171448,
		-0.9911584258079529,
		-0.9985418319702148],
		"max":[0.991428792476654,
		0.9913879036903381,
		0.9976957440376282]
	},
	{
		"bufferView":7,
		"type":"VEC2",
		"componentType":5126,
		"count":1151,
		"byteOffset":24,
		"min":[0.0,
		0.0],
		"max":[1.0,
		1.0]
	},
	{
		"bufferView":8,
		"type":"SCALAR",
		"componentType":5123,
		"count":435,
		"byteOffset":0,
		"min":[0],
		"max":[146]
	},
	{
		"bufferView":9,
		"type":"VEC3",
		"componentType":5126,
		"count":147,
		"byteOffset":0,
		"min":[-0.9650866389274597,
		-1.168084740638733,
		-0.7300000190734863],
		"max":[1.3849133253097535,
		0.7417752146720886,
		-0.7300000190734863]
	},
	{
		"bufferView":9,
		"type":"VEC3",
		"componentType":5126,
		"count":147,
		"byteOffset":12,
		"min":[0.0,
		0.0,
		-1.0],
		"max":[0.0,
		0.0,
		-1.0]
	},
	{
		"bufferView":9,
		"type":"VEC2",
		"componentType":5126,
		"count":147,
		"byteOffset":24,
		"min":[0.0,
		0.0],
		"max":[1.0,
		0.8127063512802124]
	},
	{
		"bufferView":10,
		"type":"SCALAR",
		"componentType":5123,
		"count":408,
		"byteOffset":0,
		"min":[0],
		"max":[137]
	},
	{
		"bufferView":11,
		"type":"VEC3",
		"componentType":5126,
		"count":138,
		"byteOffset":0,
		"min":[-2.0800938606262209,
		-2.0800938606262209,
		-0.6499999761581421],
		"max":[2.0800938606262209,
		2.0800938606262209,
		0.0]
	},
	{
		"bufferView":11,
		"type":"VEC3",
		"componentType":5126,
		"count":138,
		"byteOffset":12,
		"min":[-0.9998694658279419,
		-0.9998694658279419,
		0.0],
		"max":[0.9998694658279419,
		0.9998694658279419,
		0.0]
	},
	{
		"bufferView":11,
		"type":"VEC2",
		"componentType":5126,
		"count":138,
		"byteOffset":24,
		"min":[0.0,
		0.0],
		"max":[1.0,
		1.0]
	},
	{
		"bufferView":12,
		"type":"SCALAR",
		"componentType":5123,
		"count":2448,
		"byteOffset":0,
		"min":[0],
		"max":[482]
	},
	{
		"bufferView":13,
		"type":"VEC3",
		"componentType":5126,
		"count":483,
		"byteOffset":0,
		"min":[-2.0800938606262209,
		-2.0800938606262209,
		0.0],
		"max":[2.0800938606262209,
		2.0800938606262209,
		0.07999999821186066]
	},
	{
		"bufferView":13,
		"type":"VEC3",
		"componentType":5126,
		"count":483,
		"byteOffset":12,
		"min":[-0.9912974238395691,
		-0.9912974238395691,
		0.13062013685703278],
		"max":[0.9912974238395691,
		0.9912974238395691,
		0.9914625883102417]
	},
	{
		"bufferView":13,
		"type":"VEC2",
		"componentType":5126,
		"count":483,
		"byteOffset":24,
		"min":[0.0,
		0.0],
		"max":[1.0,
		1.0]
	},
	{
		"bufferView":14,
		"type":"SCALAR",
		"componentType":5123,
		"count":198,
		"byteOffset":0,
		"min":[0],
		"max":[67]
	},
	{
		"bufferView":15,
		"type":"VEC3",
		"componentType":5126,
		"count":68,
		"byteOffset":0,
		"min":[-2.0,
		-2.0,
		0.07999999821186066],
		"max":[2.0,
		2.0,
		0.07999999821186066]
	},
	{
		"bufferView":15,
		"type":"VEC3",
		"componentType":5126,
		"count":68,
		"byteOffset":12,
		"min":[0.0,
		0.0,
		1.0],
		"max":[0.0,
		0.0,
		1.0]
	},
	{
		"bufferView":15,
		"type":"VEC2",
		"componentType":5126,
		"count":68,
		"byteOffset":24,
		"min":[0.0,
		0.0],
		"max":[1.0,
		1.0]
	},
	{
		"bufferView":16,
		"type":"SCALAR",
		"componentType":5123,
		"count":2448,
		"byteOffset":0,
		"min":[0],
		"max":[482]
	},
	{
		"bufferView":17,
		"type":"VEC3",
		"componentType":5126,
		"count":483,
		"byteOffset":0,
		"min":[-2.0800938606262209,
		-2.0800938606262209,
		-0.7300000190734863],
		"max":[2.0800938606262209,
		2.0800938606262209,
		-0.6499999761581421]
	},
	{
		"bufferView":17,
		"type":"VEC3",
		"componentType":5126,
		"count":483,
		"byteOffset":12,
		"min":[-0.9912974238395691,
		-0.9912974238395691,
		-0.9914626479148865],
		"max":[0.9912974238395691,
		0.9912974238395691,
		-0.1306203454732895]
	},
	{
		"bufferView":17,
		"type":"VEC2",
		"componentType":5126,
		"count":483,
		"byteOffset":24,
		"min":[0.0,
		0.0],
		"max":[1.0,
		1.0]
	},
	{
		"bufferView":18,
		"type":"SCALAR",
		"componentType":5123,
		"count":198,
		"byteOffset":0,
		"min":[0],
		"max":[67]
	},
	{
		"bufferView":19,
		"type":"VEC3",
		"componentType":5126,
		"count":68,
		"byteOffset":0,
		"min":[-2.0,
		-2.0,
		-0.7300000190734863],
		"max":[2.0,
		2.0,
		-0.7300000190734863]
	},
	{
		"bufferView":19,
		"type":"VEC3",
		"componentType":5126,
		"count":68,
		"byteOffset":12,
		"min":[0.0,
		0.0,
		-1.0],
		"max":[0.0,
		0.0,
		-1.0]
	},
	{
		"bufferView":19,
		"type":"VEC2",
		"componentType":5126,
		"count":68,
		"byteOffset":24,
		"min":[0.0,
		0.0],
		"max":[1.0,
		1.0]
	}],
	"bufferViews":[{
		"buffer":0,
		"byteOffset":0,
		"byteLength":1764,
		"target":34963
	},
	{
		"buffer":0,
		"byteOffset":1764,
		"byteLength":10752,
		"target":34962,
		"byteStride":32
	},
	{
		"buffer":1,
		"byteOffset":0,
		"byteLength":10584,
		"target":34963
	},
	{
		"buffer":1,
		"byteOffset":10584,
		"byteLength":36512,
		"target":34962,
		"byteStride":32
	},
	{
		"buffer":2,
		"byteOffset":0,
		"byteLength":870,
		"target":34963
	},
	{
		"buffer":2,
		"byteOffset":872,
		"byteLength":4704,
		"target":34962,
		"byteStride":32
	},
	{
		"buffer":3,
		"byteOffset":0,
		"byteLength":10584,
		"target":34963
	},
	{
		"buffer":3,
		"byteOffset":10584,
		"byteLength":36832,
		"target":34962,
		"byteStride":32
	},
	{
		"buffer":4,
		"byteOffset":0,
		"byteLength":870,
		"target":34963
	},
	{
		"buffer":4,
		"byteOffset":872,
		"byteLength":4704,
		"target":34962,
		"byteStride":32
	},
	{
		"buffer":5,
		"byteOffset":0,
		"byteLength":816,
		"target":34963
	},
	{
		"buffer":5,
		"byteOffset":816,
		"byteLength":4416,
		"target":34962,
		"byteStride":32
	},
	{
		"buffer":6,
		"byteOffset":0,
		"byteLength":4896,
		"target":34963
	},
	{
		"buffer":6,
		"byteOffset":4896,
		"byteLength":15456,
		"target":34962,
		"byteStride":32
	},
	{
		"buffer":7,
		"byteOffset":0,
		"byteLength":396,
		"target":34963
	},
	{
		"buffer":7,
		"byteOffset":396,
		"byteLength":2176,
		"target":34962,
		"byteStride":32
	},
	{
		"buffer":8,
		"byteOffset":0,
		"byteLength":4896,
		"target":34963
	},
	{
		"buffer":8,
		"byteOffset":4896,
		"byteLength":15456,
		"target":34962,
		"byteStride":32
	},
	{
		"buffer":9,
		"byteOffset":0,
		"byteLength":396,
		"target":34963
	},
	{
		"buffer":9,
		"byteOffset":396,
		"byteLength":2176,
		"target":34962,
		"byteStride":32
	}],
	"buffers":[{
		"uri":"data:application/octet-stream;base64,",
		"byteLength":12516
	},
	{
		"uri":"data:application/octet-stream;base64,",
		"byteLength":47096
	},
	{
		"uri":"data:application/octet-stream;base64,",
		"byteLength":5576
	},
	{
		"uri":"data:application/octet-stream;base64,",
		"byteLength":47416
	},
	{
		"uri":"data:application/octet-stream;base64,",
		"byteLength":5576
	},
	{
		"uri":"data:application/octet-stream;base64,",
		"byteLength":5232
	},
	{
		"uri":"data:application/octet-stream;base64,",
		"byteLength":20352
	},
	{
		"uri":"data:application/octet-stream;base64,",
		"byteLength":2572
	},
	{
		"uri":"data:application/octet-stream;base64,",
		"byteLength":20352
	},
	{
		"uri":"data:application/octet-stream;base64,",
		"byteLength":2572
	}],
	"materials":[{
		"pbrMetallicRoughness":{
			"baseColorFactor":[1.0,
			1.0,
			1.0,
			1.0],
			"metallicFactor":0.0,
			"roughnessFactor":0.5
		},
		"emissiveFactor":[0.0,
		0.0,
		0.0],
		"alphaMode":"OPAQUE",
		"doubleSided":false,
		"name":"Path"
	},
	{
		"pbrMetallicRoughness":{
			"baseColorFactor":[0.11399999999999998,
			0.631,
			0.949,
			1.0],
			"metallicFactor":0.0,
			"roughnessFactor":0.5
		},
		"emissiveFactor":[0.0,
		0.0,
		0.0],
		"alphaMode":"OPAQUE",
		"doubleSided":false,
		"name":"Path_2"
	}]
}