{
	"asset":{
		"version":"2.0",
		"generator":"Created using the official Cinema 4D glTF Exporter 1.000x290161"
	},
	"scenes":[{
		"nodes":[0]
	}],
	"nodes":[{
		"name":"web",
		"children":[1,
		7]
	},
	{
		"name":"Path",
		"translation":[0.0,
		0.0,
		0.0011992029612883926],
		"rotation":[0.0,
		0.0,
		0.0,
		-1.0],
		"scale":[0.009999999776482582,
		0.009999999776482582,
		0.009999999776482582],
		"children":[2]
	},
	{
		"name":"Path",
		"mesh":0,
		"children":[3,
		5]
	},
	{
		"name":"丸み 1",
		"mesh":1,
		"children":[4]
	},
	{
		"name":"キャップ 1",
		"mesh":2
	},
	{
		"name":"丸み 2",
		"mesh":3,
		"children":[6]
	},
	{
		"name":"キャップ 2",
		"mesh":4
	},
	{
		"name":"Path",
		"translation":[0.0,
		0.0,
		0.0],
		"rotation":[0.0,
		0.0,
		0.0,
		-1.0],
		"scale":[0.009999999776482582,
		0.009999999776482582,
		0.009999999776482582],
		"children":[8]
	},
	{
		"name":"Path",
		"mesh":5,
		"children":[9,
		11]
	},
	{
		"name":"丸み 1",
		"mesh":6,
		"children":[10]
	},
	{
		"name":"キャップ 1",
		"mesh":7
	},
	{
		"name":"丸み 2",
		"mesh":8,
		"children":[12]
	},
	{
		"name":"キャップ 2",
		"mesh":9
	}],
	"meshes":[{
		"primitives":[{
			"attributes":{
				"POSITION":1,
				"NORMAL":2,
				"TEXCOORD_0":3
			},
			"indices":0,
			"material":0
		}]
	},
	{
		"primitives":[{
			"attributes":{
				"POSITION":5,
				"NORMAL":6,
				"TEXCOORD_0":7
			},
			"indices":4,
			"material":0
		}]
	},
	{
		"primitives":[{
			"attributes":{
				"POSITION":9,
				"NORMAL":10,
				"TEXCOORD_0":11
			},
			"indices":8,
			"material":0
		}]
	},
	{
		"primitives":[{
			"attributes":{
				"POSITION":13,
				"NORMAL":14,
				"TEXCOORD_0":15
			},
			"indices":12,
			"material":0
		}]
	},
	{
		"primitives":[{
			"attributes":{
				"POSITION":17,
				"NORMAL":18,
				"TEXCOORD_0":19
			},
			"indices":16,
			"material":0
		}]
	},
	{
		"primitives":[{
			"attributes":{
				"POSITION":21,
				"NORMAL":22,
				"TEXCOORD_0":23
			},
			"indices":20,
			"material":1
		}]
	},
	{
		"primitives":[{
			"attributes":{
				"POSITION":25,
				"NORMAL":26,
				"TEXCOORD_0":27
			},
			"indices":24,
			"material":1
		}]
	},
	{
		"primitives":[{
			"attributes":{
				"POSITION":29,
				"NORMAL":30,
				"TEXCOORD_0":31
			},
			"indices":28,
			"material":1
		}]
	},
	{
		"primitives":[{
			"attributes":{
				"POSITION":33,
				"NORMAL":34,
				"TEXCOORD_0":35
			},
			"indices":32,
			"material":1
		}]
	},
	{
		"primitives":[{
			"attributes":{
				"POSITION":37,
				"NORMAL":38,
				"TEXCOORD_0":39
			},
			"indices":36,
			"material":1
		}]
	}],
	"accessors":[{
		"bufferView":0,
		"byteOffset":0,
		"type":"SCALAR",
		"componentType":5123,
		"count":1344,
		"min":[0],
		"max":[547]
	},
	{
		"bufferView":1,
		"byteOffset":0,
		"type":"VEC3",
		"componentType":5126,
		"count":548,
		"min":[-1.3122094869613648,
		-1.3122252225875855,
		-0.6499999761581421],
		"max":[1.312212586402893,
		1.3122402429580689,
		0.0]
	},
	{
		"bufferView":1,
		"byteOffset":12,
		"type":"VEC3",
		"componentType":5126,
		"count":548,
		"min":[-0.9999982118606567,
		-1.0,
		0.0],
		"max":[0.9999982118606567,
		1.0,
		0.0]
	},
	{
		"bufferView":1,
		"byteOffset":24,
		"type":"VEC2",
		"componentType":5126,
		"count":548,
		"min":[0.0,
		0.0],
		"max":[1.0,
		1.0]
	},
	{
		"bufferView":2,
		"byteOffset":0,
		"type":"SCALAR",
		"componentType":5123,
		"count":8064,
		"min":[0],
		"max":[1903]
	},
	{
		"bufferView":3,
		"byteOffset":0,
		"type":"VEC3",
		"componentType":5126,
		"count":1904,
		"min":[-1.3122094869613648,
		-1.3122252225875855,
		0.0],
		"max":[1.312212586402893,
		1.3122402429580689,
		0.07999999821186066]
	},
	{
		"bufferView":3,
		"byteOffset":12,
		"type":"VEC3",
		"componentType":5126,
		"count":1904,
		"min":[-0.9914140701293945,
		-0.9914449453353882,
		-0.9310705661773682],
		"max":[0.9914140701293945,
		0.991445004940033,
		0.9967774152755737]
	},
	{
		"bufferView":3,
		"byteOffset":24,
		"type":"VEC2",
		"componentType":5126,
		"count":1904,
		"min":[0.0,
		0.0],
		"max":[1.0,
		1.0]
	},
	{
		"bufferView":4,
		"byteOffset":0,
		"type":"SCALAR",
		"componentType":5123,
		"count":720,
		"min":[0],
		"max":[223]
	},
	{
		"bufferView":5,
		"byteOffset":0,
		"type":"VEC3",
		"componentType":5126,
		"count":224,
		"min":[-1.2321434020996094,
		-1.232147455215454,
		0.07999999821186066],
		"max":[1.2321465015411378,
		1.2321624755859376,
		0.07999999821186066]
	},
	{
		"bufferView":5,
		"byteOffset":12,
		"type":"VEC3",
		"componentType":5126,
		"count":224,
		"min":[0.0,
		0.0,
		1.0],
		"max":[0.0,
		0.0,
		1.0]
	},
	{
		"bufferView":5,
		"byteOffset":24,
		"type":"VEC2",
		"componentType":5126,
		"count":224,
		"min":[0.0,
		0.0],
		"max":[0.9999918937683106,
		1.0]
	},
	{
		"bufferView":6,
		"byteOffset":0,
		"type":"SCALAR",
		"componentType":5123,
		"count":8064,
		"min":[0],
		"max":[1903]
	},
	{
		"bufferView":7,
		"byteOffset":0,
		"type":"VEC3",
		"componentType":5126,
		"count":1904,
		"min":[-1.3122094869613648,
		-1.3122252225875855,
		-0.7300000190734863],
		"max":[1.312212586402893,
		1.3122402429580689,
		-0.6499999761581421]
	},
	{
		"bufferView":7,
		"byteOffset":12,
		"type":"VEC3",
		"componentType":5126,
		"count":1904,
		"min":[-0.9914140701293945,
		-0.9914449453353882,
		-0.996777355670929],
		"max":[0.9914140701293945,
		0.9914449453353882,
		0.9787625074386597]
	},
	{
		"bufferView":7,
		"byteOffset":24,
		"type":"VEC2",
		"componentType":5126,
		"count":1904,
		"min":[0.0,
		0.0],
		"max":[1.0,
		1.0]
	},
	{
		"bufferView":8,
		"byteOffset":0,
		"type":"SCALAR",
		"componentType":5123,
		"count":720,
		"min":[0],
		"max":[223]
	},
	{
		"bufferView":9,
		"byteOffset":0,
		"type":"VEC3",
		"componentType":5126,
		"count":224,
		"min":[-1.2321434020996094,
		-1.232147455215454,
		-0.7300000190734863],
		"max":[1.2321465015411378,
		1.2321624755859376,
		-0.7300000190734863]
	},
	{
		"bufferView":9,
		"byteOffset":12,
		"type":"VEC3",
		"componentType":5126,
		"count":224,
		"min":[0.0,
		0.0,
		-1.0],
		"max":[0.0,
		0.0,
		-1.0]
	},
	{
		"bufferView":9,
		"byteOffset":24,
		"type":"VEC2",
		"componentType":5126,
		"count":224,
		"min":[0.0,
		0.0],
		"max":[0.9999918937683106,
		1.0]
	},
	{
		"bufferView":10,
		"byteOffset":0,
		"type":"SCALAR",
		"componentType":5123,
		"count":408,
		"min":[0],
		"max":[137]
	},
	{
		"bufferView":11,
		"byteOffset":0,
		"type":"VEC3",
		"componentType":5126,
		"count":138,
		"min":[-2.0800940990448,
		-2.0800940990448,
		-0.6499999761581421],
		"max":[2.0800940990448,
		2.0800940990448,
		0.0]
	},
	{
		"bufferView":11,
		"byteOffset":12,
		"type":"VEC3",
		"componentType":5126,
		"count":138,
		"min":[-0.9998694062232971,
		-0.9998694658279419,
		0.0],
		"max":[0.9998694062232971,
		0.9998694658279419,
		0.0]
	},
	{
		"bufferView":11,
		"byteOffset":24,
		"type":"VEC2",
		"componentType":5126,
		"count":138,
		"min":[0.0,
		0.0],
		"max":[1.0,
		1.0]
	},
	{
		"bufferView":12,
		"byteOffset":0,
		"type":"SCALAR",
		"componentType":5123,
		"count":2448,
		"min":[0],
		"max":[482]
	},
	{
		"bufferView":13,
		"byteOffset":0,
		"type":"VEC3",
		"componentType":5126,
		"count":483,
		"min":[-2.0800940990448,
		-2.0800940990448,
		0.0],
		"max":[2.0800940990448,
		2.0800940990448,
		0.07999999821186066]
	},
	{
		"bufferView":13,
		"byteOffset":12,
		"type":"VEC3",
		"componentType":5126,
		"count":483,
		"min":[-0.9912974834442139,
		-0.9912974834442139,
		0.1306135058403015],
		"max":[0.9912977814674377,
		0.9912974834442139,
		0.9914624691009522]
	},
	{
		"bufferView":13,
		"byteOffset":24,
		"type":"VEC2",
		"componentType":5126,
		"count":483,
		"min":[0.0,
		0.0],
		"max":[1.0,
		1.0]
	},
	{
		"bufferView":14,
		"byteOffset":0,
		"type":"SCALAR",
		"componentType":5123,
		"count":198,
		"min":[0],
		"max":[67]
	},
	{
		"bufferView":15,
		"byteOffset":0,
		"type":"VEC3",
		"componentType":5126,
		"count":68,
		"min":[-2.0,
		-2.0,
		0.07999999821186066],
		"max":[2.0,
		2.0,
		0.07999999821186066]
	},
	{
		"bufferView":15,
		"byteOffset":12,
		"type":"VEC3",
		"componentType":5126,
		"count":68,
		"min":[0.0,
		0.0,
		1.0],
		"max":[0.0,
		0.0,
		1.0]
	},
	{
		"bufferView":15,
		"byteOffset":24,
		"type":"VEC2",
		"componentType":5126,
		"count":68,
		"min":[0.0,
		0.0],
		"max":[1.0,
		1.0]
	},
	{
		"bufferView":16,
		"byteOffset":0,
		"type":"SCALAR",
		"componentType":5123,
		"count":2448,
		"min":[0],
		"max":[482]
	},
	{
		"bufferView":17,
		"byteOffset":0,
		"type":"VEC3",
		"componentType":5126,
		"count":483,
		"min":[-2.0800940990448,
		-2.0800940990448,
		-0.7300000190734863],
		"max":[2.0800940990448,
		2.0800940990448,
		-0.6499999761581421]
	},
	{
		"bufferView":17,
		"byteOffset":12,
		"type":"VEC3",
		"componentType":5126,
		"count":483,
		"min":[-0.9912974834442139,
		-0.9912974834442139,
		-0.9914626479148865],
		"max":[0.9912977814674377,
		0.9912974834442139,
		-0.13061372935771943]
	},
	{
		"bufferView":17,
		"byteOffset":24,
		"type":"VEC2",
		"componentType":5126,
		"count":483,
		"min":[0.0,
		0.0],
		"max":[1.0,
		1.0]
	},
	{
		"bufferView":18,
		"byteOffset":0,
		"type":"SCALAR",
		"componentType":5123,
		"count":198,
		"min":[0],
		"max":[67]
	},
	{
		"bufferView":19,
		"byteOffset":0,
		"type":"VEC3",
		"componentType":5126,
		"count":68,
		"min":[-2.0,
		-2.0,
		-0.7300000190734863],
		"max":[2.0,
		2.0,
		-0.7300000190734863]
	},
	{
		"bufferView":19,
		"byteOffset":12,
		"type":"VEC3",
		"componentType":5126,
		"count":68,
		"min":[0.0,
		0.0,
		-1.0],
		"max":[0.0,
		0.0,
		-1.0]
	},
	{
		"bufferView":19,
		"byteOffset":24,
		"type":"VEC2",
		"componentType":5126,
		"count":68,
		"min":[0.0,
		0.0],
		"max":[1.0,
		1.0]
	}],
	"bufferViews":[{
		"buffer":0,
		"byteOffset":0,
		"byteLength":2688,
		"target":34963
	},
	{
		"buffer":0,
		"byteOffset":2688,
		"byteLength":17536,
		"target":34962,
		"byteStride":32
	},
	{
		"buffer":1,
		"byteOffset":0,
		"byteLength":16128,
		"target":34963
	},
	{
		"buffer":1,
		"byteOffset":16128,
		"byteLength":60928,
		"target":34962,
		"byteStride":32
	},
	{
		"buffer":2,
		"byteOffset":0,
		"byteLength":1440,
		"target":34963
	},
	{
		"buffer":2,
		"byteOffset":1440,
		"byteLength":7168,
		"target":34962,
		"byteStride":32
	},
	{
		"buffer":3,
		"byteOffset":0,
		"byteLength":16128,
		"target":34963
	},
	{
		"buffer":3,
		"byteOffset":16128,
		"byteLength":60928,
		"target":34962,
		"byteStride":32
	},
	{
		"buffer":4,
		"byteOffset":0,
		"byteLength":1440,
		"target":34963
	},
	{
		"buffer":4,
		"byteOffset":1440,
		"byteLength":7168,
		"target":34962,
		"byteStride":32
	},
	{
		"buffer":5,
		"byteOffset":0,
		"byteLength":816,
		"target":34963
	},
	{
		"buffer":5,
		"byteOffset":816,
		"byteLength":4416,
		"target":34962,
		"byteStride":32
	},
	{
		"buffer":6,
		"byteOffset":0,
		"byteLength":4896,
		"target":34963
	},
	{
		"buffer":6,
		"byteOffset":4896,
		"byteLength":15456,
		"target":34962,
		"byteStride":32
	},
	{
		"buffer":7,
		"byteOffset":0,
		"byteLength":396,
		"target":34963
	},
	{
		"buffer":7,
		"byteOffset":396,
		"byteLength":2176,
		"target":34962,
		"byteStride":32
	},
	{
		"buffer":8,
		"byteOffset":0,
		"byteLength":4896,
		"target":34963
	},
	{
		"buffer":8,
		"byteOffset":4896,
		"byteLength":15456,
		"target":34962,
		"byteStride":32
	},
	{
		"buffer":9,
		"byteOffset":0,
		"byteLength":396,
		"target":34963
	},
	{
		"buffer":9,
		"byteOffset":396,
		"byteLength":2176,
		"target":34962,
		"byteStride":32
	}],
	"buffers":[{
		"uri":"data:application/octet-stream;base64,",
		"byteLength":20224
	},
	{
		"uri":"data:application/octet-stream;base64,",
		"byteLength":77056
	},
	{
		"uri":"data:application/octet-stream;base64,",
		"byteLength":8608
	},
	{
		"uri":"data:application/octet-stream;base64,",
		"byteLength":77056
	},
	{
		"uri":"data:application/octet-stream;base64,",
		"byteLength":8608
	},
	{
		"uri":"data:application/octet-stream;base64,",
		"byteLength":5232
	},
	{
		"uri":"data:application/octet-stream;base64,",
		"byteLength":20352
	},
	{
		"uri":"data:application/octet-stream;base64,",
		"byteLength":2572
	},
	{
		"uri":"data:application/octet-stream;base64,",
		"byteLength":20352
	},
	{
		"uri":"data:application/octet-stream;base64,",
		"byteLength":2572
	}],
	"materials":[{
		"pbrMetallicRoughness":{
			"baseColorFactor":[1.0,
			1.0,
			1.0,
			1.0],
			"metallicFactor":0.0,
			"roughnessFactor":0.5
		},
		"emissiveFactor":[0.0,
		0.0,
		0.0],
		"alphaMode":"OPAQUE",
		"doubleSided":false,
		"name":"Path"
	},
	{
		"pbrMetallicRoughness":{
			"baseColorFactor":[0.019200000000000017,
			0.96,
			0.7718399999999999,
			1.0],
			"metallicFactor":0.0,
			"roughnessFactor":0.5
		},
		"emissiveFactor":[0.0,
		0.0,
		0.0],
		"alphaMode":"OPAQUE",
		"doubleSided":false,
		"name":"Path"
	}]
}