{
	"asset":{
		"version":"2.0",
		"generator":"Created using the official Cinema 4D glTF Exporter 1.000x290161"
	},
	"scenes":[{
		"nodes":[0]
	}],
	"nodes":[{
		"name":"title-frame",
		"translation":[1.4874424934387208,
		2.1028947830200197,
		0.0],
		"rotation":[0.0,
		0.0,
		0.0,
		-1.0],
		"scale":[1.0,
		1.0,
		1.0],
		"children":[1]
	},
	{
		"name":"Path",
		"children":[2]
	},
	{
		"name":"Path",
		"mesh":0,
		"children":[3,
		4]
	},
	{
		"name":"キャップ 1",
		"mesh":1
	},
	{
		"name":"キャップ 2",
		"mesh":2
	}],
	"meshes":[{
		"primitives":[{
			"attributes":{
				"POSITION":1,
				"NORMAL":2,
				"TEXCOORD_0":3
			},
			"indices":0,
			"material":0
		}]
	},
	{
		"primitives":[{
			"attributes":{
				"POSITION":5,
				"NORMAL":6,
				"TEXCOORD_0":7
			},
			"indices":4,
			"material":0
		}]
	},
	{
		"primitives":[{
			"attributes":{
				"POSITION":9,
				"NORMAL":10,
				"TEXCOORD_0":11
			},
			"indices":8,
			"material":0
		}]
	}],
	"accessors":[{
		"bufferView":0,
		"type":"SCALAR",
		"componentType":5123,
		"count":876,
		"byteOffset":0,
		"min":[0],
		"max":[323]
	},
	{
		"bufferView":1,
		"type":"VEC3",
		"componentType":5126,
		"count":324,
		"byteOffset":0,
		"min":[-3.3119988441467287,
		-0.4856594502925873,
		-0.019999999552965165],
		"max":[1.6578611135482789,
		0.33113056421279909,
		0.0]
	},
	{
		"bufferView":1,
		"type":"VEC3",
		"componentType":5126,
		"count":324,
		"byteOffset":12,
		"min":[-1.0,
		-1.0,
		0.0],
		"max":[1.0,
		1.0,
		0.0]
	},
	{
		"bufferView":1,
		"type":"VEC2",
		"componentType":5126,
		"count":324,
		"byteOffset":24,
		"min":[0.0,
		0.0],
		"max":[1.0,
		1.0]
	},
	{
		"bufferView":2,
		"type":"SCALAR",
		"componentType":5123,
		"count":432,
		"byteOffset":0,
		"min":[0],
		"max":[145]
	},
	{
		"bufferView":3,
		"type":"VEC3",
		"componentType":5126,
		"count":146,
		"byteOffset":0,
		"min":[-3.3119988441467287,
		-0.4856594502925873,
		0.0],
		"max":[1.6578611135482789,
		0.33113056421279909,
		0.0]
	},
	{
		"bufferView":3,
		"type":"VEC3",
		"componentType":5126,
		"count":146,
		"byteOffset":12,
		"min":[0.0,
		0.0,
		1.0],
		"max":[0.0,
		0.0,
		1.0]
	},
	{
		"bufferView":3,
		"type":"VEC2",
		"componentType":5126,
		"count":146,
		"byteOffset":24,
		"min":[0.0,
		0.0],
		"max":[1.0,
		0.16434869170188905]
	},
	{
		"bufferView":4,
		"type":"SCALAR",
		"componentType":5123,
		"count":432,
		"byteOffset":0,
		"min":[0],
		"max":[145]
	},
	{
		"bufferView":5,
		"type":"VEC3",
		"componentType":5126,
		"count":146,
		"byteOffset":0,
		"min":[-3.3119988441467287,
		-0.4856594502925873,
		-0.019999999552965165],
		"max":[1.6578611135482789,
		0.33113056421279909,
		-0.019999999552965165]
	},
	{
		"bufferView":5,
		"type":"VEC3",
		"componentType":5126,
		"count":146,
		"byteOffset":12,
		"min":[0.0,
		0.0,
		-1.0],
		"max":[0.0,
		0.0,
		-1.0]
	},
	{
		"bufferView":5,
		"type":"VEC2",
		"componentType":5126,
		"count":146,
		"byteOffset":24,
		"min":[0.0,
		0.0],
		"max":[1.0,
		0.16434869170188905]
	}],
	"bufferViews":[{
		"buffer":0,
		"byteOffset":0,
		"byteLength":1752,
		"target":34963
	},
	{
		"buffer":0,
		"byteOffset":1752,
		"byteLength":10368,
		"target":34962,
		"byteStride":32
	},
	{
		"buffer":1,
		"byteOffset":0,
		"byteLength":864,
		"target":34963
	},
	{
		"buffer":1,
		"byteOffset":864,
		"byteLength":4672,
		"target":34962,
		"byteStride":32
	},
	{
		"buffer":2,
		"byteOffset":0,
		"byteLength":864,
		"target":34963
	},
	{
		"buffer":2,
		"byteOffset":864,
		"byteLength":4672,
		"target":34962,
		"byteStride":32
	}],
	"buffers":[{
		"uri":"data:application/octet-stream;base64,",
		"byteLength":12120
	},
	{
		"uri":"data:application/octet-stream;base64,",
		"byteLength":5536
	},
	{
		"uri":"data:application/octet-stream;base64,",
		"byteLength":5536
	}],
	"materials":[{
		"pbrMetallicRoughness":{
			"baseColorFactor":[0.15000000000000003,
			0.5999999999999999,
			0.8,
			1.0],
			"metallicFactor":0.0,
			"roughnessFactor":0.5
		},
		"emissiveFactor":[0.0,
		0.0,
		0.0],
		"alphaMode":"OPAQUE",
		"doubleSided":false,
		"name":"Path"
	}]
}