{
	"asset":{
		"version":"2.0",
		"generator":"Created using the official Cinema 4D glTF Exporter 1.000x290161"
	},
	"scenes":[{
		"nodes":[0]
	}],
	"nodes":[{
		"name":"title-frame2",
		"translation":[2.8974673748016359,
		1.645571231842041,
		0.0],
		"rotation":[0.0,
		0.0,
		0.0,
		-1.0],
		"scale":[1.0,
		1.0,
		1.0],
		"children":[1]
	},
	{
		"name":"Path",
		"children":[2]
	},
	{
		"name":"Path",
		"mesh":0,
		"children":[3,
		4]
	},
	{
		"name":"キャップ 1",
		"mesh":1
	},
	{
		"name":"キャップ 2",
		"mesh":2
	}],
	"meshes":[{
		"primitives":[{
			"attributes":{
				"POSITION":1,
				"NORMAL":2,
				"TEXCOORD_0":3
			},
			"indices":0,
			"material":0
		}]
	},
	{
		"primitives":[{
			"attributes":{
				"POSITION":5,
				"NORMAL":6,
				"TEXCOORD_0":7
			},
			"indices":4,
			"material":0
		}]
	},
	{
		"primitives":[{
			"attributes":{
				"POSITION":9,
				"NORMAL":10,
				"TEXCOORD_0":11
			},
			"indices":8,
			"material":0
		}]
	}],
	"accessors":[{
		"bufferView":0,
		"type":"SCALAR",
		"componentType":5123,
		"count":1326,
		"byteOffset":0,
		"min":[0],
		"max":[453]
	},
	{
		"bufferView":1,
		"type":"VEC3",
		"componentType":5126,
		"count":454,
		"byteOffset":0,
		"min":[-0.2134305089712143,
		-0.25948894023895266,
		-0.019999999552965165],
		"max":[0.5498916506767273,
		0.6279754042625427,
		0.0]
	},
	{
		"bufferView":1,
		"type":"VEC3",
		"componentType":5126,
		"count":454,
		"byteOffset":12,
		"min":[-0.9999873638153076,
		-0.99991375207901,
		0.0],
		"max":[0.9999236464500427,
		0.9998810887336731,
		0.0]
	},
	{
		"bufferView":1,
		"type":"VEC2",
		"componentType":5126,
		"count":454,
		"byteOffset":24,
		"min":[0.0,
		0.0],
		"max":[1.0,
		1.0]
	},
	{
		"bufferView":2,
		"type":"SCALAR",
		"componentType":5123,
		"count":657,
		"byteOffset":0,
		"min":[0],
		"max":[220]
	},
	{
		"bufferView":3,
		"type":"VEC3",
		"componentType":5126,
		"count":221,
		"byteOffset":0,
		"min":[-0.2134305089712143,
		-0.25948894023895266,
		0.0],
		"max":[0.5498916506767273,
		0.6279754042625427,
		0.0]
	},
	{
		"bufferView":3,
		"type":"VEC3",
		"componentType":5126,
		"count":221,
		"byteOffset":12,
		"min":[0.0,
		0.0,
		1.0],
		"max":[0.0,
		0.0,
		1.0]
	},
	{
		"bufferView":3,
		"type":"VEC2",
		"componentType":5126,
		"count":221,
		"byteOffset":24,
		"min":[0.0,
		0.0],
		"max":[0.8601158261299133,
		1.0]
	},
	{
		"bufferView":4,
		"type":"SCALAR",
		"componentType":5123,
		"count":657,
		"byteOffset":0,
		"min":[0],
		"max":[220]
	},
	{
		"bufferView":5,
		"type":"VEC3",
		"componentType":5126,
		"count":221,
		"byteOffset":0,
		"min":[-0.2134305089712143,
		-0.25948894023895266,
		-0.019999999552965165],
		"max":[0.5498916506767273,
		0.6279754042625427,
		-0.019999999552965165]
	},
	{
		"bufferView":5,
		"type":"VEC3",
		"componentType":5126,
		"count":221,
		"byteOffset":12,
		"min":[0.0,
		0.0,
		-1.0],
		"max":[0.0,
		0.0,
		-1.0]
	},
	{
		"bufferView":5,
		"type":"VEC2",
		"componentType":5126,
		"count":221,
		"byteOffset":24,
		"min":[0.0,
		0.0],
		"max":[0.8601158261299133,
		1.0]
	}],
	"bufferViews":[{
		"buffer":0,
		"byteOffset":0,
		"byteLength":2652,
		"target":34963
	},
	{
		"buffer":0,
		"byteOffset":2652,
		"byteLength":14528,
		"target":34962,
		"byteStride":32
	},
	{
		"buffer":1,
		"byteOffset":0,
		"byteLength":1314,
		"target":34963
	},
	{
		"buffer":1,
		"byteOffset":1316,
		"byteLength":7072,
		"target":34962,
		"byteStride":32
	},
	{
		"buffer":2,
		"byteOffset":0,
		"byteLength":1314,
		"target":34963
	},
	{
		"buffer":2,
		"byteOffset":1316,
		"byteLength":7072,
		"target":34962,
		"byteStride":32
	}],
	"buffers":[{
		"uri":"data:application/octet-stream;base64,",
		"byteLength":17180
	},
	{
		"uri":"data:application/octet-stream;base64,",
		"byteLength":8388
	},
	{
		"uri":"data:application/octet-stream;base64,",
		"byteLength":8388
	}],
	"materials":[{
		"pbrMetallicRoughness":{
			"baseColorFactor":[0.8941176470588235,
			0.37647058823529408,
			0.38431372549019579,
			1.0],
			"metallicFactor":0.0,
			"roughnessFactor":0.5
		},
		"emissiveFactor":[0.0,
		0.0,
		0.0],
		"alphaMode":"OPAQUE",
		"doubleSided":false,
		"name":"Mat"
	}]
}