{
	"asset":{
		"version":"2.0",
		"generator":"Created using the official Cinema 4D glTF Exporter 1.000x290161"
	},
	"scenes":[{
		"nodes":[0]
	}],
	"nodes":[{
		"name":"movie",
		"translation":[0.0,
		0.0,
		0.0],
		"children":[1,
		7],
		"rotation":[0.0,
		0.0,
		0.0,
		-1.0],
		"scale":[0.10000000149011612,
		0.10000000149011612,
		0.10000000149011612]
	},
	{
		"name":"Path",
		"translation":[-0.030401499941945077,
		0.000030499999411404133,
		0.05999999865889549],
		"children":[2],
		"rotation":[0.0,
		0.0,
		0.0,
		-1.0],
		"scale":[1.0,
		1.0,
		1.0]
	},
	{
		"name":"Path",
		"mesh":0,
		"children":[3,
		5]
	},
	{
		"name":"丸み 1",
		"mesh":1,
		"children":[4]
	},
	{
		"name":"キャップ 1",
		"mesh":2
	},
	{
		"name":"丸み 2",
		"mesh":3,
		"children":[6]
	},
	{
		"name":"キャップ 2",
		"mesh":4
	},
	{
		"name":"Path",
		"mesh":5,
		"translation":[0.030401499941945077,
		-0.000030499999411404133,
		-0.05999999865889549],
		"children":[8,
		10],
		"rotation":[0.0,
		0.0,
		0.0,
		-1.0],
		"scale":[1.0,
		1.0,
		1.0]
	},
	{
		"name":"丸み 1",
		"mesh":6,
		"children":[9]
	},
	{
		"name":"キャップ 1",
		"mesh":7
	},
	{
		"name":"丸み 2",
		"mesh":8,
		"children":[11]
	},
	{
		"name":"キャップ 2",
		"mesh":9
	}],
	"meshes":[{
		"primitives":[{
			"attributes":{
				"POSITION":1,
				"NORMAL":2,
				"TEXCOORD_0":3
			},
			"indices":0,
			"material":0
		}]
	},
	{
		"primitives":[{
			"attributes":{
				"POSITION":5,
				"NORMAL":6,
				"TEXCOORD_0":7
			},
			"indices":4,
			"material":0
		}]
	},
	{
		"primitives":[{
			"attributes":{
				"POSITION":9,
				"NORMAL":10,
				"TEXCOORD_0":11
			},
			"indices":8,
			"material":0
		}]
	},
	{
		"primitives":[{
			"attributes":{
				"POSITION":13,
				"NORMAL":14,
				"TEXCOORD_0":15
			},
			"indices":12,
			"material":0
		}]
	},
	{
		"primitives":[{
			"attributes":{
				"POSITION":17,
				"NORMAL":18,
				"TEXCOORD_0":19
			},
			"indices":16,
			"material":0
		}]
	},
	{
		"primitives":[{
			"attributes":{
				"POSITION":21,
				"NORMAL":22,
				"TEXCOORD_0":23
			},
			"indices":20,
			"material":1
		}]
	},
	{
		"primitives":[{
			"attributes":{
				"POSITION":25,
				"NORMAL":26,
				"TEXCOORD_0":27
			},
			"indices":24,
			"material":1
		}]
	},
	{
		"primitives":[{
			"attributes":{
				"POSITION":29,
				"NORMAL":30,
				"TEXCOORD_0":31
			},
			"indices":28,
			"material":1
		}]
	},
	{
		"primitives":[{
			"attributes":{
				"POSITION":33,
				"NORMAL":34,
				"TEXCOORD_0":35
			},
			"indices":32,
			"material":1
		}]
	},
	{
		"primitives":[{
			"attributes":{
				"POSITION":37,
				"NORMAL":38,
				"TEXCOORD_0":39
			},
			"indices":36,
			"material":1
		}]
	}],
	"accessors":[{
		"bufferView":0,
		"type":"SCALAR",
		"componentType":5123,
		"count":402,
		"byteOffset":0,
		"min":[0],
		"max":[145]
	},
	{
		"bufferView":1,
		"type":"VEC3",
		"componentType":5126,
		"count":146,
		"byteOffset":0,
		"min":[-0.4413119852542877,
		-0.7780457139015198,
		-0.6499999761581421],
		"max":[0.8963719010353088,
		0.7779345512390137,
		0.0]
	},
	{
		"bufferView":1,
		"type":"VEC3",
		"componentType":5126,
		"count":146,
		"byteOffset":12,
		"min":[-1.0,
		-0.999988317489624,
		0.0],
		"max":[0.9999428987503052,
		0.9999368190765381,
		0.0]
	},
	{
		"bufferView":1,
		"type":"VEC2",
		"componentType":5126,
		"count":146,
		"byteOffset":24,
		"min":[0.0,
		0.0],
		"max":[1.0,
		1.0]
	},
	{
		"bufferView":2,
		"type":"SCALAR",
		"componentType":5123,
		"count":2412,
		"byteOffset":0,
		"min":[0],
		"max":[517]
	},
	{
		"bufferView":3,
		"type":"VEC3",
		"componentType":5126,
		"count":518,
		"byteOffset":0,
		"min":[-0.4413119852542877,
		-0.7780457139015198,
		0.0],
		"max":[0.8963719010353088,
		0.7779345512390137,
		0.07999999821186066]
	},
	{
		"bufferView":3,
		"type":"VEC3",
		"componentType":5126,
		"count":518,
		"byteOffset":12,
		"min":[-0.9914450645446777,
		-0.9914120435714722,
		0.13052348792552949],
		"max":[0.9912303686141968,
		0.9913618564605713,
		0.9914669394493103]
	},
	{
		"bufferView":3,
		"type":"VEC2",
		"componentType":5126,
		"count":518,
		"byteOffset":24,
		"min":[0.0,
		0.0],
		"max":[1.0,
		1.0]
	},
	{
		"bufferView":4,
		"type":"SCALAR",
		"componentType":5123,
		"count":195,
		"byteOffset":0,
		"min":[0],
		"max":[66]
	},
	{
		"bufferView":5,
		"type":"VEC3",
		"componentType":5126,
		"count":67,
		"byteOffset":0,
		"min":[-0.36131200194358828,
		-0.6979395151138306,
		0.07999999821186066],
		"max":[0.8162879943847656,
		0.697859525680542,
		0.07999999821186066]
	},
	{
		"bufferView":5,
		"type":"VEC3",
		"componentType":5126,
		"count":67,
		"byteOffset":12,
		"min":[0.0,
		0.0,
		1.0],
		"max":[0.0,
		0.0,
		1.0]
	},
	{
		"bufferView":5,
		"type":"VEC2",
		"componentType":5126,
		"count":67,
		"byteOffset":24,
		"min":[0.0,
		0.0],
		"max":[0.8436744809150696,
		1.0]
	},
	{
		"bufferView":6,
		"type":"SCALAR",
		"componentType":5123,
		"count":2412,
		"byteOffset":0,
		"min":[0],
		"max":[517]
	},
	{
		"bufferView":7,
		"type":"VEC3",
		"componentType":5126,
		"count":518,
		"byteOffset":0,
		"min":[-0.4413119852542877,
		-0.7780457139015198,
		-0.7300000190734863],
		"max":[0.8963719010353088,
		0.7779345512390137,
		-0.6499999761581421]
	},
	{
		"bufferView":7,
		"type":"VEC3",
		"componentType":5126,
		"count":518,
		"byteOffset":12,
		"min":[-0.9914450645446777,
		-0.9914120435714722,
		-0.9914670586585999],
		"max":[0.9912303686141968,
		0.9913619756698608,
		-0.1305237114429474]
	},
	{
		"bufferView":7,
		"type":"VEC2",
		"componentType":5126,
		"count":518,
		"byteOffset":24,
		"min":[0.0,
		0.0],
		"max":[1.0,
		1.0]
	},
	{
		"bufferView":8,
		"type":"SCALAR",
		"componentType":5123,
		"count":195,
		"byteOffset":0,
		"min":[0],
		"max":[66]
	},
	{
		"bufferView":9,
		"type":"VEC3",
		"componentType":5126,
		"count":67,
		"byteOffset":0,
		"min":[-0.36131200194358828,
		-0.6979395151138306,
		-0.7300000190734863],
		"max":[0.8162879943847656,
		0.697859525680542,
		-0.7300000190734863]
	},
	{
		"bufferView":9,
		"type":"VEC3",
		"componentType":5126,
		"count":67,
		"byteOffset":12,
		"min":[0.0,
		0.0,
		-1.0],
		"max":[0.0,
		0.0,
		-1.0]
	},
	{
		"bufferView":9,
		"type":"VEC2",
		"componentType":5126,
		"count":67,
		"byteOffset":24,
		"min":[0.0,
		0.0],
		"max":[0.8436744809150696,
		1.0]
	},
	{
		"bufferView":10,
		"type":"SCALAR",
		"componentType":5123,
		"count":408,
		"byteOffset":0,
		"min":[0],
		"max":[137]
	},
	{
		"bufferView":11,
		"type":"VEC3",
		"componentType":5126,
		"count":138,
		"byteOffset":0,
		"min":[-2.0800940990448,
		-2.0800940990448,
		-0.6499999761581421],
		"max":[2.0800940990448,
		2.0800940990448,
		0.0]
	},
	{
		"bufferView":11,
		"type":"VEC3",
		"componentType":5126,
		"count":138,
		"byteOffset":12,
		"min":[-0.9998694062232971,
		-0.9998694658279419,
		0.0],
		"max":[0.9998694062232971,
		0.9998694658279419,
		0.0]
	},
	{
		"bufferView":11,
		"type":"VEC2",
		"componentType":5126,
		"count":138,
		"byteOffset":24,
		"min":[0.0,
		0.0],
		"max":[1.0,
		1.0]
	},
	{
		"bufferView":12,
		"type":"SCALAR",
		"componentType":5123,
		"count":2448,
		"byteOffset":0,
		"min":[0],
		"max":[482]
	},
	{
		"bufferView":13,
		"type":"VEC3",
		"componentType":5126,
		"count":483,
		"byteOffset":0,
		"min":[-2.0800940990448,
		-2.0800940990448,
		0.0],
		"max":[2.0800940990448,
		2.0800940990448,
		0.07999999821186066]
	},
	{
		"bufferView":13,
		"type":"VEC3",
		"componentType":5126,
		"count":483,
		"byteOffset":12,
		"min":[-0.9912974834442139,
		-0.9912974834442139,
		0.1306135058403015],
		"max":[0.9912977814674377,
		0.9912974834442139,
		0.9914624691009522]
	},
	{
		"bufferView":13,
		"type":"VEC2",
		"componentType":5126,
		"count":483,
		"byteOffset":24,
		"min":[0.0,
		0.0],
		"max":[1.0,
		1.0]
	},
	{
		"bufferView":14,
		"type":"SCALAR",
		"componentType":5123,
		"count":198,
		"byteOffset":0,
		"min":[0],
		"max":[67]
	},
	{
		"bufferView":15,
		"type":"VEC3",
		"componentType":5126,
		"count":68,
		"byteOffset":0,
		"min":[-2.0,
		-2.0,
		0.07999999821186066],
		"max":[2.0,
		2.0,
		0.07999999821186066]
	},
	{
		"bufferView":15,
		"type":"VEC3",
		"componentType":5126,
		"count":68,
		"byteOffset":12,
		"min":[0.0,
		0.0,
		1.0],
		"max":[0.0,
		0.0,
		1.0]
	},
	{
		"bufferView":15,
		"type":"VEC2",
		"componentType":5126,
		"count":68,
		"byteOffset":24,
		"min":[0.0,
		0.0],
		"max":[0.9999999403953552,
		1.0]
	},
	{
		"bufferView":16,
		"type":"SCALAR",
		"componentType":5123,
		"count":2448,
		"byteOffset":0,
		"min":[0],
		"max":[482]
	},
	{
		"bufferView":17,
		"type":"VEC3",
		"componentType":5126,
		"count":483,
		"byteOffset":0,
		"min":[-2.0800940990448,
		-2.0800940990448,
		-0.7300000190734863],
		"max":[2.0800940990448,
		2.0800940990448,
		-0.6499999761581421]
	},
	{
		"bufferView":17,
		"type":"VEC3",
		"componentType":5126,
		"count":483,
		"byteOffset":12,
		"min":[-0.9912974834442139,
		-0.9912974834442139,
		-0.9914626479148865],
		"max":[0.9912977814674377,
		0.9912974834442139,
		-0.13061372935771943]
	},
	{
		"bufferView":17,
		"type":"VEC2",
		"componentType":5126,
		"count":483,
		"byteOffset":24,
		"min":[0.0,
		0.0],
		"max":[1.0,
		1.0]
	},
	{
		"bufferView":18,
		"type":"SCALAR",
		"componentType":5123,
		"count":198,
		"byteOffset":0,
		"min":[0],
		"max":[67]
	},
	{
		"bufferView":19,
		"type":"VEC3",
		"componentType":5126,
		"count":68,
		"byteOffset":0,
		"min":[-2.0,
		-2.0,
		-0.7300000190734863],
		"max":[2.0,
		2.0,
		-0.7300000190734863]
	},
	{
		"bufferView":19,
		"type":"VEC3",
		"componentType":5126,
		"count":68,
		"byteOffset":12,
		"min":[0.0,
		0.0,
		-1.0],
		"max":[0.0,
		0.0,
		-1.0]
	},
	{
		"bufferView":19,
		"type":"VEC2",
		"componentType":5126,
		"count":68,
		"byteOffset":24,
		"min":[0.0,
		0.0],
		"max":[1.0,
		1.0]
	}],
	"bufferViews":[{
		"buffer":0,
		"byteOffset":0,
		"byteLength":804,
		"target":34963
	},
	{
		"buffer":0,
		"byteOffset":804,
		"byteLength":4672,
		"target":34962,
		"byteStride":32
	},
	{
		"buffer":1,
		"byteOffset":0,
		"byteLength":4824,
		"target":34963
	},
	{
		"buffer":1,
		"byteOffset":4824,
		"byteLength":16576,
		"target":34962,
		"byteStride":32
	},
	{
		"buffer":2,
		"byteOffset":0,
		"byteLength":390,
		"target":34963
	},
	{
		"buffer":2,
		"byteOffset":392,
		"byteLength":2144,
		"target":34962,
		"byteStride":32
	},
	{
		"buffer":3,
		"byteOffset":0,
		"byteLength":4824,
		"target":34963
	},
	{
		"buffer":3,
		"byteOffset":4824,
		"byteLength":16576,
		"target":34962,
		"byteStride":32
	},
	{
		"buffer":4,
		"byteOffset":0,
		"byteLength":390,
		"target":34963
	},
	{
		"buffer":4,
		"byteOffset":392,
		"byteLength":2144,
		"target":34962,
		"byteStride":32
	},
	{
		"buffer":5,
		"byteOffset":0,
		"byteLength":816,
		"target":34963
	},
	{
		"buffer":5,
		"byteOffset":816,
		"byteLength":4416,
		"target":34962,
		"byteStride":32
	},
	{
		"buffer":6,
		"byteOffset":0,
		"byteLength":4896,
		"target":34963
	},
	{
		"buffer":6,
		"byteOffset":4896,
		"byteLength":15456,
		"target":34962,
		"byteStride":32
	},
	{
		"buffer":7,
		"byteOffset":0,
		"byteLength":396,
		"target":34963
	},
	{
		"buffer":7,
		"byteOffset":396,
		"byteLength":2176,
		"target":34962,
		"byteStride":32
	},
	{
		"buffer":8,
		"byteOffset":0,
		"byteLength":4896,
		"target":34963
	},
	{
		"buffer":8,
		"byteOffset":4896,
		"byteLength":15456,
		"target":34962,
		"byteStride":32
	},
	{
		"buffer":9,
		"byteOffset":0,
		"byteLength":396,
		"target":34963
	},
	{
		"buffer":9,
		"byteOffset":396,
		"byteLength":2176,
		"target":34962,
		"byteStride":32
	}],
	"buffers":[{
		"uri":"data:application/octet-stream;base64,",
		"byteLength":5476
	},
	{
		"uri":"data:application/octet-stream;base64,",
		"byteLength":21400
	},
	{
		"uri":"data:application/octet-stream;base64,",
		"byteLength":2536
	},
	{
		"uri":"data:application/octet-stream;base64,",
		"byteLength":21400
	},
	{
		"uri":"data:application/octet-stream;base64,",
		"byteLength":2536
	},
	{
		"uri":"data:application/octet-stream;base64,",
		"byteLength":5232
	},
	{
		"uri":"data:application/octet-stream;base64,",
		"byteLength":20352
	},
	{
		"uri":"data:application/octet-stream;base64,",
		"byteLength":2572
	},
	{
		"uri":"data:application/octet-stream;base64,",
		"byteLength":20352
	},
	{
		"uri":"data:application/octet-stream;base64,",
		"byteLength":2572
	}],
	"materials":[{
		"pbrMetallicRoughness":{
			"baseColorFactor":[1.0,
			1.0,
			1.0,
			1.0],
			"metallicFactor":0.0,
			"roughnessFactor":0.5
		},
		"emissiveFactor":[0.0,
		0.0,
		0.0],
		"alphaMode":"OPAQUE",
		"doubleSided":false,
		"name":"Path"
	},
	{
		"pbrMetallicRoughness":{
			"baseColorFactor":[0.941,
			0.4,
			0.4,
			1.0],
			"metallicFactor":0.0,
			"roughnessFactor":0.5
		},
		"emissiveFactor":[0.0,
		0.0,
		0.0],
		"alphaMode":"OPAQUE",
		"doubleSided":false,
		"name":"Path_4"
	}]
}