{
	"asset":{
		"version":"2.0",
		"generator":"Created using the official Cinema 4D glTF Exporter 1.000x290161"
	},
	"scenes":[{
		"nodes":[0]
	}],
	"nodes":[{
		"name":"leader-line",
		"translation":[-19.975135803222658,
		-0.07000000029802323,
		0.0],
		"rotation":[0.0,
		0.0,
		0.0,
		-1.0],
		"scale":[1.0,
		1.0,
		1.0],
		"mesh":0,
		"children":[1,
		2]
	},
	{
		"name":"キャップ 1",
		"translation":[19.969799041748048,
		0.06900505721569061,
		0.0],
		"rotation":[0.19949683547019959,
		0.6783811450004578,
		-0.6783811450004578,
		-0.19949683547019959],
		"scale":[1.0,
		1.0,
		1.0],
		"mesh":1
	},
	{
		"name":"キャップ 2",
		"translation":[26.935312271118165,
		5.421452522277832,
		0.0],
		"rotation":[0.5,
		0.5,
		-0.5,
		-0.5],
		"scale":[1.0,
		1.0,
		1.0],
		"mesh":2
	}],
	"meshes":[{
		"primitives":[{
			"attributes":{
				"POSITION":1,
				"NORMAL":2,
				"TEXCOORD_0":3
			},
			"indices":0,
			"material":0
		}]
	},
	{
		"primitives":[{
			"attributes":{
				"POSITION":5,
				"NORMAL":6,
				"TEXCOORD_0":7
			},
			"indices":4,
			"material":0
		}]
	},
	{
		"primitives":[{
			"attributes":{
				"POSITION":9,
				"NORMAL":10,
				"TEXCOORD_0":11
			},
			"indices":8,
			"material":0
		}]
	}],
	"accessors":[{
		"bufferView":0,
		"type":"SCALAR",
		"componentType":5123,
		"count":816,
		"byteOffset":0,
		"min":[0],
		"max":[206]
	},
	{
		"bufferView":1,
		"type":"VEC3",
		"componentType":5126,
		"count":207,
		"byteOffset":0,
		"min":[19.94439697265625,
		0.05265131592750549,
		-0.03020975925028324],
		"max":[26.935312271118165,
		5.451662063598633,
		0.03020975925028324]
	},
	{
		"bufferView":1,
		"type":"VEC3",
		"componentType":5126,
		"count":207,
		"byteOffset":12,
		"min":[-0.8406922221183777,
		-0.9998705983161926,
		-0.9999702572822571],
		"max":[0.840695321559906,
		0.9998705983161926,
		0.9999703168869019]
	},
	{
		"bufferView":1,
		"type":"VEC2",
		"componentType":5126,
		"count":207,
		"byteOffset":24,
		"min":[0.0,
		0.0],
		"max":[1.0,
		1.0]
	},
	{
		"bufferView":2,
		"type":"SCALAR",
		"componentType":5123,
		"count":198,
		"byteOffset":0,
		"min":[0],
		"max":[67]
	},
	{
		"bufferView":3,
		"type":"VEC3",
		"componentType":5126,
		"count":68,
		"byteOffset":0,
		"min":[-0.03020975925028324,
		-0.03020975925028324,
		-9.769962563761818e-17],
		"max":[0.03020975925028324,
		0.03020975925028324,
		3.872458028477159e-15]
	},
	{
		"bufferView":3,
		"type":"VEC3",
		"componentType":5126,
		"count":68,
		"byteOffset":12,
		"min":[-8.866356433767653e-12,
		-2.39304565746723e-11,
		1.0],
		"max":[8.398158037048465e-12,
		5.9053582336654475e-12,
		1.0]
	},
	{
		"bufferView":3,
		"type":"VEC2",
		"componentType":5126,
		"count":68,
		"byteOffset":24,
		"min":[0.0,
		0.0],
		"max":[1.0,
		1.0]
	},
	{
		"bufferView":4,
		"type":"SCALAR",
		"componentType":5123,
		"count":198,
		"byteOffset":0,
		"min":[0],
		"max":[67]
	},
	{
		"bufferView":5,
		"type":"VEC3",
		"componentType":5126,
		"count":68,
		"byteOffset":0,
		"min":[-0.03020975925028324,
		-0.03020975925028324,
		0.0],
		"max":[0.03020975925028324,
		0.03020975925028324,
		0.0]
	},
	{
		"bufferView":5,
		"type":"VEC3",
		"componentType":5126,
		"count":68,
		"byteOffset":12,
		"min":[0.0,
		0.0,
		-1.0],
		"max":[0.0,
		0.0,
		-1.0]
	},
	{
		"bufferView":5,
		"type":"VEC2",
		"componentType":5126,
		"count":68,
		"byteOffset":24,
		"min":[0.0,
		0.0],
		"max":[1.0,
		1.0]
	}],
	"bufferViews":[{
		"buffer":0,
		"byteOffset":0,
		"byteLength":1632,
		"target":34963
	},
	{
		"buffer":0,
		"byteOffset":1632,
		"byteLength":6624,
		"target":34962,
		"byteStride":32
	},
	{
		"buffer":1,
		"byteOffset":0,
		"byteLength":396,
		"target":34963
	},
	{
		"buffer":1,
		"byteOffset":396,
		"byteLength":2176,
		"target":34962,
		"byteStride":32
	},
	{
		"buffer":2,
		"byteOffset":0,
		"byteLength":396,
		"target":34963
	},
	{
		"buffer":2,
		"byteOffset":396,
		"byteLength":2176,
		"target":34962,
		"byteStride":32
	}],
	"buffers":[{
		"uri":"data:application/octet-stream;base64,",
		"byteLength":8256
	},
	{
		"uri":"data:application/octet-stream;base64,",
		"byteLength":2572
	},
	{
		"uri":"data:application/octet-stream;base64,",
		"byteLength":2572
	}],
	"materials":[{
		"pbrMetallicRoughness":{
			"baseColorFactor":[0.8,
			0.8,
			0.8,
			1.0],
			"metallicFactor":0.0,
			"roughnessFactor":0.5
		},
		"emissiveFactor":[0.0,
		0.0,
		0.0],
		"alphaMode":"OPAQUE",
		"doubleSided":false,
		"name":"Mat.1"
	}]
}